<svg xmlns="http://www.w3.org/2000/svg" viewBox="0 0 410 404" fill="none">
  <path d="M399.641 59.525L215.643 388.545a22.2 22.2 0 01-38.57.001L10.367 59.525A22.2 22.2 0 0130.09 26.205l184.852 33.73a22.2 22.2 0 007.964 0L379.918 26.2a22.2 22.2 0 0119.723 33.326z" fill="#41D1FF"/>
  <path d="M292.965.777L156.387 27.45a11.1 11.1 0 00-9.304 10.173l-8.398 141.247a11.1 11.1 0 0013.415 11.412l38.016-8.778a11.1 11.1 0 0113.343 12.912l-11.29 55.306a11.1 11.1 0 0016.498 11.775l23.482-14.05a11.1 11.1 0 0116.626 9.602l-1.197 42.88a11.1 11.1 0 0020.138 6.097L271.54 299.2a11.1 11.1 0 001.808-9.583l-29.256-144.665a11.1 11.1 0 0113.058-12.566l33.444 7.704a11.1 11.1 0 0013.375-10.31l5.693-117.42A11.1 11.1 0 00292.965.777z" fill="#BD34FE"/>
  <path d="M293.079.782L156.5 27.455a11.1 11.1 0 00-9.304 10.173l-8.398 141.247a11.1 11.1 0 0013.415 11.412l38.016-8.778a11.1 11.1 0 0113.343 12.912l-11.29 55.306a11.1 11.1 0 0016.498 11.775l23.482-14.05a11.1 11.1 0 0116.626 9.602l-1.197 42.88a11.1 11.1 0 0020.138 6.097L271.654 299.2a11.1 11.1 0 001.808-9.583L244.206 144.95a11.1 11.1 0 0113.058-12.566l33.444 7.704a11.1 11.1 0 0013.375-10.31l5.693-117.42A11.1 11.1 0 00293.079.782z" fill="url(#paint0_linear)"/>
  <defs>
    <linearGradient id="paint0_linear" x1="156" y1="34" x2="265" y2="344" gradientUnits="userSpaceOnUse">
      <stop stop-color="#FFEA83"/>
      <stop offset="0.083" stop-color="#FFDD35"/>
      <stop offset="1" stop-color="#FFA800"/>
    </linearGradient>
  </defs>
</svg>
